<svg width="28" height="28" viewBox="0 0 28 28" fill="none" xmlns="http://www.w3.org/2000/svg">
<path d="M13.9185 27.3273C21.4647 27.3273 27.5822 21.2099 27.5822 13.6636C27.5822 6.11742 21.4647 0 13.9185 0C6.3723 0 0.254883 6.11742 0.254883 13.6636C0.254883 21.2099 6.3723 27.3273 13.9185 27.3273Z" fill="#FFF7F3"/>
<path d="M13.9222 6.32593C11.9297 6.32593 11.6803 6.33453 10.8977 6.36893C10.1179 6.40333 9.58176 6.52948 9.11732 6.71009C8.63282 6.8993 8.22286 7.14872 7.81576 7.55868C7.4058 7.96578 7.15638 8.37574 6.96717 8.85738C6.78656 9.32468 6.66041 9.85791 6.62601 10.6377C6.59161 11.4232 6.58301 11.6726 6.58301 13.6651C6.58301 15.6576 6.59161 15.907 6.62601 16.6897C6.66041 17.4695 6.78656 18.0056 6.96717 18.47C7.15638 18.9545 7.4058 19.3645 7.81576 19.7716C8.22286 20.1787 8.63282 20.4309 9.11446 20.6173C9.58176 20.7979 10.115 20.924 10.8948 20.9584C11.6774 20.9928 11.9269 21.0014 13.9193 21.0014C15.9118 21.0014 16.1612 20.9928 16.9439 20.9584C17.7237 20.924 18.2598 20.7979 18.7242 20.6173C19.2058 20.4309 19.6158 20.1787 20.0229 19.7716C20.43 19.3645 20.6823 18.9545 20.8686 18.4729C21.0492 18.0056 21.1754 17.4723 21.2098 16.6925C21.2442 15.9099 21.2528 15.6605 21.2528 13.668C21.2528 11.6755 21.2442 11.4261 21.2098 10.6434C21.1754 9.86365 21.0492 9.32754 20.8686 8.86311C20.688 8.37574 20.4386 7.96578 20.0286 7.55868C19.6215 7.15159 19.2116 6.8993 18.7299 6.71296C18.2626 6.53234 17.7294 6.4062 16.9496 6.3718C16.1641 6.33453 15.9147 6.32593 13.9222 6.32593Z" fill="#5600DE"/>
<path d="M13.9213 9.89551C11.84 9.89551 10.1514 11.5841 10.1514 13.6654C10.1514 15.7468 11.84 17.4354 13.9213 17.4354C16.0027 17.4354 17.6912 15.7468 17.6912 13.6654C17.6912 11.5841 16.0027 9.89551 13.9213 9.89551ZM13.9213 16.1109C12.571 16.1109 11.4759 15.0157 11.4759 13.6654C11.4759 12.3151 12.571 11.22 13.9213 11.22C15.2716 11.22 16.3667 12.3151 16.3667 13.6654C16.3667 15.0157 15.2716 16.1109 13.9213 16.1109Z" fill="#FFF7F3"/>
<path d="M18.7212 9.74634C18.7212 10.2337 18.3256 10.6265 17.8411 10.6265C17.3537 10.6265 16.9609 10.2308 16.9609 9.74634C16.9609 9.25897 17.3566 8.86621 17.8411 8.86621C18.3256 8.86621 18.7212 9.26184 18.7212 9.74634Z" fill="#FFF7F3"/>
</svg>
